rawr.sfdir
StartChar: exclam
Encoding: 33 33 3
Width: 600
GlyphClass: 1
Flags: W
HStem: -11 134<280 318.5> 669 20G<251 345 345 345>
VStem: 232 134<37 74.5> 256 84.5
LayerCount: 2
Fore
SplineSet
345 689 m 1,0,-1
 336 227 l 1,1,-1
 261 227 l 1,2,-1
 251 689 l 1,3,-1
 345 689 l 1,0,-1
299 123 m 0,4,5
 328 123 328 123 347 103.5 c 128,-1,6
 366 84 366 84 366 56 c 0,7,8
 366 27 366 27 347 8 c 128,-1,9
 328 -11 328 -11 299 -11 c 128,-1,10
 270 -11 270 -11 251 8.5 c 128,-1,11
 232 28 232 28 232 56 c 128,-1,12
 232 84 232 84 251.5 103.5 c 128,-1,13
 271 123 271 123 299 123 c 0,4,5
EndSplineSet
Validated: 1
EndChar
StartChar: numbersign
Encoding: 35 35 5
Width: 600
GlyphClass: 1
Flags: W
HStem: 0 21G<110 181 110 110 327 398 327 327> 170 64<53 132 53 140 212 349 429 510> 456 66<90 171 90 179 90 241 250 388 467 547> 669 20G<202 273 273 273 419 490 490 490>
VStem: 53 494<170 522 234 522>
LayerCount: 2
Fore
SplineSet
458 456 m 1,0,-1
 429 234 l 1,1,-1
 510 234 l 1,2,-1
 510 170 l 1,3,-1
 419 170 l 1,4,-1
 398 0 l 1,5,-1
 327 0 l 1,6,-1
 349 170 l 1,7,-1
 204 170 l 1,8,-1
 181 0 l 1,9,-1
 110 0 l 1,10,-1
 132 170 l 1,11,-1
 53 170 l 1,12,-1
 53 234 l 1,13,-1
 140 234 l 1,14,-1
 171 456 l 1,15,-1
 90 456 l 1,16,-1
 90 522 l 1,17,-1
 179 522 l 1,18,-1
 202 689 l 1,19,-1
 273 689 l 1,20,-1
 250 522 l 1,21,-1
 396 522 l 1,22,-1
 419 689 l 1,23,-1
 490 689 l 1,24,-1
 467 522 l 1,25,-1
 547 522 l 1,26,-1
 547 456 l 1,27,-1
 458 456 l 1,0,-1
212 234 m 1,28,-1
 357 234 l 1,29,-1
 388 456 l 1,30,-1
 241 456 l 1,31,-1
 212 234 l 1,28,-1
EndSplineSet
Validated: 513
EndChar
StartChar: plus
Encoding: 43 43 13
Width: 600
GlyphClass: 1
Flags: W
HStem: 276 70<116 260 116 260 338 484>
VStem: 260 78<127 276 127 276 346 495>
LayerCount: 2
Fore
SplineSet
338 495 m 1,0,-1
 338 346 l 1,1,-1
 484 346 l 1,2,-1
 484 276 l 1,3,-1
 338 276 l 1,4,-1
 338 127 l 1,5,-1
 260 127 l 1,6,-1
 260 276 l 1,7,-1
 116 276 l 1,8,-1
 116 346 l 1,9,-1
 260 346 l 1,10,-1
 260 495 l 1,11,-1
 338 495 l 1,0,-1
EndSplineSet
Validated: 1
Substitution2: "'onum' Oldstyle Figures in Latin lookup 22 subtable" plus.tosf
Substitution2: "'dnom' Denominators in Latin lookup 15 subtable" plus.dnom
Substitution2: "'numr' Numerators in Latin lookup 14 subtable" plus.numr
Substitution2: "'sups' Superscript in Latin lookup 13 subtable" uni207A
Substitution2: "'subs' Subscript in Latin lookup 12 subtable" uni208A
AlternateSubs2: "'aalt' Access All Alternates in Latin lookup 1 subtable" uni208A uni207A plus.numr plus.dnom plus.tosf
EndChar
StartChar: hyphen
Encoding: 45 45 15
Width: 600
GlyphClass: 1
Flags: W
HStem: 277 72<125 475 125 475>
VStem: 125 350<277 349 277 349>
LayerCount: 2
Fore
SplineSet
125 277 m 1,0,-1
 125 349 l 1,1,-1
 475 349 l 1,2,-1
 475 277 l 1,3,-1
 125 277 l 1,0,-1
EndSplineSet
Validated: 513
EndChar
StartChar: slash
Encoding: 47 47 17
Width: 600
GlyphClass: 1
Flags: W
HStem: -103 912<121 480>
VStem: 53 494
LayerCount: 2
Fore
SplineSet
121 -103 m 1,0,-1
 53 -73 l 1,1,-1
 480 809 l 1,2,-1
 547 777 l 1,3,-1
 121 -103 l 1,0,-1
EndSplineSet
Validated: 1
Substitution2: "'frac' Diagonal Fractions in Latin lookup 16 subtable" fraction
Substitution2: "'aalt' Access All Alternates in Latin lookup 0 subtable" fraction
EndChar
StartChar: zero
Encoding: 48 48 18
Width: 600
GlyphClass: 1
Flags: W
HStem: -11 68<257.5 343 257.5 374> 279 131<281.5 319> 632 68<257.5 343>
VStem: 75 88<243 446.5 243 459> 235 131<326.5 363> 437 88<243 446.5>
LayerCount: 2
Fore
SplineSet
300 700 m 128,-1,1
 410 700 410 700 467.5 608.5 c 128,-1,2
 525 517 525 517 525 345 c 0,3,4
 525 172 525 172 467.5 80.5 c 128,-1,5
 410 -11 410 -11 300 -11 c 128,-1,6
 190 -11 190 -11 132.5 80.5 c 128,-1,7
 75 172 75 172 75 345 c 0,8,9
 75 517 75 517 132.5 608.5 c 128,-1,0
 190 700 190 700 300 700 c 128,-1,1
300 632 m 128,-1,11
 163 632 163 632 163 345 c 0,12,13
 163 57 163 57 300 57 c 128,-1,14
 437 57 437 57 437 345 c 0,15,10
 437 632 437 632 300 632 c 128,-1,11
300 410 m 128,-1,17
 328 410 328 410 347 391 c 128,-1,18
 366 372 366 372 366 345 c 0,19,20
 366 317 366 317 347 298 c 128,-1,21
 328 279 328 279 300 279 c 128,-1,22
 272 279 272 279 253.5 298 c 128,-1,23
 235 317 235 317 235 345 c 0,24,25
 235 372 235 372 253.5 391 c 128,-1,16
 272 410 272 410 300 410 c 128,-1,17
EndSplineSet
Validated: 513
EndChar
StartChar: two
Encoding: 50 50 20
Width: 600
GlyphClass: 1
Flags: W
HStem: 0 72<169 483> 629 71<231.5 303.5>
VStem: 389 88<449 543.5>
LayerCount: 2
Fore
SplineSet
269 700 m 0,0,1
 364 700 364 700 420.5 646 c 128,-1,2
 477 592 477 592 477 508 c 0,3,4
 477 415 477 415 411 323.5 c 128,-1,5
 345 232 345 232 169 72 c 1,6,-1
 493 72 l 1,7,-1
 483 0 l 1,8,-1
 73 0 l 1,9,-1
 73 68 l 1,10,11
 269 255 269 255 329 338 c 128,-1,12
 389 421 389 421 389 505 c 0,13,14
 389 563 389 563 356 596 c 128,-1,15
 323 629 323 629 265 629 c 0,16,17
 216 629 216 629 183.5 612.5 c 128,-1,18
 151 596 151 596 117 556 c 1,19,-1
 59 601 l 1,20,21
 140 700 140 700 269 700 c 0,0,1
EndSplineSet
Validated: 513
EndChar
StartChar: colon
Encoding: 58 58 28
Width: 600
GlyphClass: 1
Flags: W
HStem: -11 162<276 322.5> 349 162<276 322.5>
VStem: 219 161<47 92 408.5 453>
LayerCount: 2
Fore
SplineSet
219 431 m 0,0,1
 219 464 219 464 242 487.5 c 128,-1,2
 265 511 265 511 299 511 c 0,3,4
 334 511 334 511 357 487.5 c 128,-1,5
 380 464 380 464 380 431 c 0,6,7
 380 397 380 397 357 373 c 128,-1,8
 334 349 334 349 299 349 c 0,9,10
 265 349 265 349 242 373 c 128,-1,11
 219 397 219 397 219 431 c 0,0,1
219 70 m 0,12,13
 219 103 219 103 242 127 c 128,-1,14
 265 151 265 151 299 151 c 0,15,16
 334 151 334 151 357 127.5 c 128,-1,17
 380 104 380 104 380 70 c 0,18,19
 380 35 380 35 357 12 c 128,-1,20
 334 -11 334 -11 299 -11 c 0,21,22
 265 -11 265 -11 242 12 c 128,-1,23
 219 35 219 35 219 70 c 0,12,13
EndSplineSet
Validated: 1
EndChar
StartChar: semicolon
Encoding: 59 59 29
Width: 600
GlyphClass: 1
Flags: W
HStem: 349 162<276 322.5>
VStem: 219 161<72.5 107.5 72.5 107.5 408.5 453>
LayerCount: 2
Fore
SplineSet
299 511 m 0,0,1
 334 511 334 511 357 487.5 c 128,-1,2
 380 464 380 464 380 431 c 0,3,4
 380 397 380 397 357 373 c 128,-1,5
 334 349 334 349 299 349 c 0,6,7
 265 349 265 349 242 373 c 128,-1,8
 219 397 219 397 219 431 c 0,9,10
 219 464 219 464 242 487.5 c 128,-1,11
 265 511 265 511 299 511 c 0,0,1
299 166 m 128,-1,13
 333 166 333 166 356.5 142.5 c 128,-1,14
 380 119 380 119 380 85 c 0,15,16
 380 49 380 49 361 6 c 2,17,-1
 279 -180 l 1,18,-1
 203 -180 l 1,19,-1
 251 18 l 1,20,21
 219 42 219 42 219 85 c 0,22,23
 219 119 219 119 242 142.5 c 128,-1,12
 265 166 265 166 299 166 c 128,-1,13
EndSplineSet
Validated: 1
EndChar
StartChar: less
Encoding: 60 60 30
Width: 600
GlyphClass: 1
Flags: W
HStem: 510 20G<513 513>
VStem: 88 72<313 313 313 357 313 357>
LayerCount: 2
Fore
SplineSet
472 594 m 1,0,-1
 513 530 l 1,1,-1
 160 313 l 1,2,-1
 513 94 l 1,3,-1
 468 33 l 1,4,-1
 88 270 l 1,5,-1
 88 357 l 1,6,-1
 472 594 l 1,0,-1
EndSplineSet
Validated: 1
Substitution2: "'onum' Oldstyle Figures in Latin lookup 22 subtable" less.tosf
Substitution2: "'aalt' Access All Alternates in Latin lookup 0 subtable" less.tosf
EndChar
StartChar: equal
Encoding: 61 61 31
Width: 600
GlyphClass: 1
Flags: W
HStem: 180 72<106 494 106 494> 370 72<106 494 106 494>
VStem: 106 388<180 252 180 252 370 442 180 442>
LayerCount: 2
Fore
SplineSet
494 442 m 1,0,-1
 494 370 l 1,1,-1
 106 370 l 1,2,-1
 106 442 l 1,3,-1
 494 442 l 1,0,-1
494 252 m 1,4,-1
 494 180 l 1,5,-1
 106 180 l 1,6,-1
 106 252 l 1,7,-1
 494 252 l 1,4,-1
EndSplineSet
Validated: 1
Substitution2: "'onum' Oldstyle Figures in Latin lookup 22 subtable" equal.tosf
Substitution2: "'dnom' Denominators in Latin lookup 15 subtable" equal.dnom
Substitution2: "'numr' Numerators in Latin lookup 14 subtable" equal.numr
Substitution2: "'sups' Superscript in Latin lookup 13 subtable" uni207C
AlternateSubs2: "'aalt' Access All Alternates in Latin lookup 1 subtable" uni207C equal.numr equal.dnom equal.tosf
EndChar
StartChar: at
Encoding: 64 64 34
Width: 600
GlyphClass: 1
Flags: W
HStem: -91 68<417.5 468.5 417.5 499> -46 63<160 220> 379 62<183.5 241> 626 74<252 376.5>
VStem: 30 81<134.5 248 134.5 270.5> 293 74<105 108 108 365 365 365> 499 87<198 379.5>
LayerCount: 2
Fore
SplineSet
284 700 m 0,0,1
 359 700 359 700 414.5 675.5 c 128,-1,2
 470 651 470 651 502 613 c 128,-1,3
 534 575 534 575 553.5 518.5 c 128,-1,4
 573 462 573 462 579.5 407.5 c 128,-1,5
 586 353 586 353 586 285 c 0,6,7
 586 84 586 84 555.5 -3.5 c 128,-1,8
 525 -91 525 -91 439 -91 c 0,9,10
 382 -91 382 -91 351 -42.5 c 128,-1,11
 320 6 320 6 321 52 c 1,12,-1
 317 52 l 1,13,14
 277 -46 277 -46 180 -46 c 0,15,16
 102 -46 102 -46 66 15.5 c 128,-1,17
 30 77 30 77 30 183 c 0,18,19
 30 312 30 312 80.5 376.5 c 128,-1,20
 131 441 131 441 226 441 c 0,21,22
 298 441 298 441 367 404 c 1,23,-1
 367 108 l 2,24,25
 367 34 367 34 385.5 5.5 c 128,-1,26
 404 -23 404 -23 437 -23 c 0,27,28
 459 -23 459 -23 472.5 -3 c 128,-1,29
 486 17 486 17 491.5 66.5 c 128,-1,30
 497 116 497 116 498 155 c 128,-1,31
 499 194 499 194 499.000475835 276.060821048 c 0,32,33
 499 281 499 281 499 284 c 0,34,35
 499 363 499 363 491 419 c 128,-1,36
 483 475 483 475 461 525 c 128,-1,37
 439 575 439 575 395 600.5 c 128,-1,38
 351 626 351 626 285 626 c 0,39,40
 161 626 161 626 58 534 c 1,41,-1
 9 591 l 1,42,43
 136 700 136 700 284 700 c 0,0,1
229 379 m 0,44,45
 163 379 163 379 137 332 c 128,-1,46
 111 285 111 285 111 183 c 0,47,48
 111 17 111 17 190 17 c 0,49,50
 213 17 213 17 231 25 c 128,-1,51
 249 33 249 33 261 48 c 128,-1,52
 273 63 273 63 279 74 c 128,-1,53
 285 85 285 85 290.878765045 99.9788403972 c 0,54,55
 292 103 292 103 293 105 c 2,56,-1
 293 365 l 1,57,58
 264 379 264 379 229 379 c 0,44,45
EndSplineSet
Validated: 8912929
EndChar
StartChar: A
Encoding: 65 65 35
Width: 600
GlyphClass: 1
Flags: W
HStem: 0 21G<20 106 20 20 489 489 489 579> 176 72<184 411 184 434 161 411> 615 74<298 298> 669 20G<245 355 355 355>
VStem: 20 559<0 0>
AnchorPoint: "Anchor-5" 300 689 basechar 0
AnchorPoint: "Anchor-4" 298 0 basechar 0
LayerCount: 2
Fore
SplineSet
434 176 m 1,0,-1
 161 176 l 1,1,-1
 106 0 l 1,2,-1
 20 0 l 1,3,-1
 245 689 l 1,4,-1
 355 689 l 1,5,-1
 579 0 l 1,6,-1
 489 0 l 1,7,-1
 434 176 l 1,0,-1
184 248 m 1,8,-1
 411 248 l 1,9,-1
 298 615 l 1,10,-1
 184 248 l 1,8,-1
EndSplineSet
Validated: 513
EndChar
StartChar: B
Encoding: 66 66 36
Width: 600
GlyphClass: 1
Flags: W
HStem: 0 72<183 282> 324 72<183 294 294 300 183 294> 618 71<183 266 266 286 183 183>
VStem: 96 87<72 324 396 618> 421 89<470.5 549.5> 448 92<142 245.5>
LayerCount: 2
Fore
SplineSet
540 196 m 0,0,1
 540 142 540 142 518 102.5 c 128,-1,2
 496 63 496 63 458 41.5 c 128,-1,3
 420 20 420 20 376 10 c 128,-1,4
 332 0 332 0 282 0 c 2,5,-1
 96 0 l 1,6,-1
 96 689 l 1,7,-1
 266 689 l 2,8,9
 315 689 315 689 356 680.5 c 128,-1,10
 397 672 397 672 433 653 c 128,-1,11
 469 634 469 634 489.5 599 c 128,-1,12
 510 564 510 564 510 515 c 0,13,14
 510 453 510 453 473 415.5 c 128,-1,15
 436 378 436 378 381 365 c 1,16,17
 540 338 540 338 540 196 c 0,0,1
421 510 m 0,18,19
 421 618 421 618 286 618 c 2,20,-1
 183 618 l 1,21,-1
 183 396 l 1,22,-1
 294 396 l 2,23,24
 421 396 421 396 421 510 c 0,18,19
448 193 m 0,25,26
 448 324 448 324 300 324 c 2,27,-1
 183 324 l 1,28,-1
 183 72 l 1,29,-1
 297 72 l 2,30,31
 448 72 448 72 448 193 c 0,25,26
EndSplineSet
Validated: 8388609
EndChar
StartChar: C
Encoding: 67 67 37
Width: 600
GlyphClass: 1
Flags: W
HStem: -11 74<304 401.5 304 411> 627 73<308 390.5>
VStem: 63 91<242.5 450 242.5 461>
AnchorPoint: "Anchor-5" 365 689 basechar 0
AnchorPoint: "Anchor-4" 350 0 basechar 0
LayerCount: 2
Fore
SplineSet
358 700 m 0,0,1
 422 700 422 700 468 683.5 c 128,-1,2
 514 667 514 667 558 633 c 1,3,-1
 509 576 l 1,4,5
 448 627 448 627 364 627 c 0,6,7
 271 627 271 627 212.5 559.5 c 128,-1,8
 154 492 154 492 154 345 c 0,9,10
 154 199 154 199 211 131 c 128,-1,11
 268 63 268 63 363 63 c 0,12,13
 450 63 450 63 523 120 c 1,14,-1
 568 64 l 1,15,16
 491 -11 491 -11 362 -11 c 0,17,18
 231 -11 231 -11 147 83 c 128,-1,19
 63 177 63 177 63 345 c 0,20,21
 63 512 63 512 147.5 606 c 128,-1,22
 232 700 232 700 358 700 c 0,0,1
EndSplineSet
Validated: 1
EndChar
StartChar: F
Encoding: 70 70 40
Width: 600
GlyphClass: 1
Flags: W
HStem: 0 21G<138 225 138 138> 306 70<225 495 225 495> 617 72<225 225 225 534>
VStem: 138 87<0 306 376 617>
AnchorPoint: "Anchor-5" 300 689 basechar 0
AnchorPoint: "Anchor-4" 300 0 basechar 0
LayerCount: 2
Fore
SplineSet
225 617 m 1,0,-1
 225 376 l 1,1,-1
 495 376 l 1,2,-1
 495 306 l 1,3,-1
 225 306 l 1,4,-1
 225 0 l 1,5,-1
 138 0 l 1,6,-1
 138 689 l 1,7,-1
 544 689 l 1,8,-1
 534 617 l 1,9,-1
 225 617 l 1,0,-1
EndSplineSet
Validated: 1
EndChar
StartChar: H
Encoding: 72 72 42
Width: 600
GlyphClass: 1
Flags: W
HStem: 0 21G<83 170 83 83 430 517 430 430> 327 71<170 430 170 430> 669 20G<83 170 170 170 430 517 517 517>
VStem: 83 87<0 327 0 398 398 689> 430 87<0 327 327 327 398 689 0 689>
AnchorPoint: "Anchor-5" 300 689 basechar 0
AnchorPoint: "Anchor-4" 300 0 basechar 0
LayerCount: 2
Fore
SplineSet
430 0 m 1,0,-1
 430 327 l 1,1,-1
 170 327 l 1,2,-1
 170 0 l 1,3,-1
 83 0 l 1,4,-1
 83 689 l 1,5,-1
 170 689 l 1,6,-1
 170 398 l 1,7,-1
 430 398 l 1,8,-1
 430 689 l 1,9,-1
 517 689 l 1,10,-1
 517 0 l 1,11,-1
 430 0 l 1,0,-1
EndSplineSet
Validated: 1
EndChar
StartChar: M
Encoding: 77 77 47
Width: 600
GlyphClass: 1
Flags: W
HStem: 0 21G<30 112 30 30 486 570 486 486> 609 80<132 132 459 459>
VStem: 30 540<0 0>
LayerCount: 2
Fore
SplineSet
531 689 m 1,0,-1
 570 0 l 1,1,-1
 486 0 l 1,2,-1
 465 360 l 2,3,4
 459 455 459 455 459 609 c 1,5,-1
 343 124 l 1,6,-1
 256 124 l 1,7,-1
 132 609 l 1,8,9
 138 496 138 496 130 360 c 2,10,-1
 112 0 l 1,11,-1
 30 0 l 1,12,-1
 69 689 l 1,13,-1
 190 689 l 1,14,-1
 302 217 l 1,15,-1
 409 689 l 1,16,-1
 531 689 l 1,0,-1
EndSplineSet
Validated: 33
EndChar
StartChar: P
Encoding: 80 80 50
Width: 600
GlyphClass: 1
Flags: W
HStem: 0 21G<116 202 116 116> 256 69<202 291 202 299> 620 69<202 291 291 302 202 202>
VStem: 116 86<0 256 0 325 325 620> 464 93<417 529>
LayerCount: 2
Fore
SplineSet
557 477 m 0,0,1
 557 362 557 362 486 309 c 128,-1,2
 415 256 415 256 291 256 c 2,3,-1
 202 256 l 1,4,-1
 202 0 l 1,5,-1
 116 0 l 1,6,-1
 116 689 l 1,7,-1
 291 689 l 2,8,9
 418 689 418 689 487.5 636 c 128,-1,10
 557 583 557 583 557 477 c 0,0,1
464 476 m 0,11,12
 464 620 464 620 302 620 c 2,13,-1
 202 620 l 1,14,-1
 202 325 l 1,15,-1
 299 325 l 2,16,17
 377 325 377 325 420.5 359 c 128,-1,18
 464 393 464 393 464 476 c 0,11,12
EndSplineSet
Validated: 1
EndChar
StartChar: Q
Encoding: 81 81 51
Width: 600
GlyphClass: 1
Flags: W
HStem: -10 72<243.5 349.5> 627 73<242 358>
VStem: 45 91<251 434.5 251 447> 463 91<271 435.5>
LayerCount: 2
Fore
SplineSet
554 344 m 0,0,1
 554 105 554 105 411 27 c 1,2,3
 485 12 485 12 526.5 -25 c 128,-1,4
 568 -62 568 -62 593 -137 c 1,5,-1
 501 -173 l 1,6,7
 467 -88 467 -88 421 -49 c 128,-1,8
 375 -10 375 -10 290 -10 c 0,9,10
 173 -10 173 -10 109 85.5 c 128,-1,11
 45 181 45 181 45 343 c 0,12,13
 45 504 45 504 111 602 c 128,-1,14
 177 700 177 700 300 700 c 0,15,16
 422 700 422 700 488 603.5 c 128,-1,17
 554 507 554 507 554 344 c 0,0,1
463 344 m 128,-1,19
 463 485 463 485 424 556 c 128,-1,20
 385 627 385 627 300 627 c 0,21,22
 136 627 136 627 136 343 c 0,23,24
 136 62 136 62 300 62 c 0,25,26
 385 62 385 62 424 132.5 c 128,-1,18
 463 203 463 203 463 344 c 128,-1,19
EndSplineSet
Validated: 1
EndChar
StartChar: R
Encoding: 82 82 52
Width: 600
GlyphClass: 1
Flags: W
HStem: 0 21G<102 188 102 102 470 574 470 470> 295 68<188 281 188 289> 619 70<188 278 278 288 188 188>
VStem: 102 86<0 295 0 363 363 619> 445 92<447.5 539.5>
LayerCount: 2
Fore
SplineSet
537 495 m 0,0,1
 537 421 537 421 491 372.5 c 128,-1,2
 445 324 445 324 369 305 c 1,3,-1
 574 0 l 1,4,-1
 470 0 l 1,5,-1
 281 295 l 1,6,-1
 188 295 l 1,7,-1
 188 0 l 1,8,-1
 102 0 l 1,9,-1
 102 689 l 1,10,-1
 278 689 l 2,11,12
 537 689 537 689 537 495 c 0,0,1
445 495 m 0,13,14
 445 561 445 561 407 590 c 128,-1,15
 369 619 369 619 288 619 c 2,16,-1
 188 619 l 1,17,-1
 188 363 l 1,18,-1
 289 363 l 2,19,20
 445 363 445 363 445 495 c 0,13,14
EndSplineSet
Validated: 1
EndChar
StartChar: S
Encoding: 83 83 53
Width: 600
GlyphClass: 1
Flags: W
HStem: -11 72<244 328 244 365> 627 73<262 329>
VStem: 74 88<495.5 559.5 495.5 574> 446 91<145.5 222.5>
AnchorPoint: "Anchor-5" 306 689 basechar 0
AnchorPoint: "Anchor-4" 297 0 basechar 0
LayerCount: 2
Fore
SplineSet
537 191 m 0,0,1
 537 100 537 100 470 44.5 c 128,-1,2
 403 -11 403 -11 285 -11 c 0,3,4
 133 -11 133 -11 43 76 c 1,5,-1
 95 135 l 1,6,7
 174 61 174 61 286 61 c 0,8,9
 354 61 354 61 400 94 c 128,-1,10
 446 127 446 127 446 189 c 0,11,12
 446 240 446 240 414.5 269 c 128,-1,13
 383 298 383 298 296 323 c 0,14,15
 184 356 184 356 129 400.5 c 128,-1,16
 74 445 74 445 74 522 c 0,17,18
 74 600 74 600 136 650 c 128,-1,19
 198 700 198 700 297 700 c 0,20,21
 425 700 425 700 517 621 c 1,22,-1
 465 565 l 1,23,24
 394 627 394 627 300 627 c 0,25,26
 240 627 240 627 201 601 c 128,-1,27
 162 575 162 575 162 525 c 0,28,29
 162 481 162 481 199 454 c 128,-1,30
 236 427 236 427 335 398 c 0,31,32
 432 370 432 370 484.5 325 c 128,-1,33
 537 280 537 280 537 191 c 0,0,1
EndSplineSet
Validated: 1
EndChar
StartChar: V
Encoding: 86 86 56
Width: 600
GlyphClass: 1
Flags: W
HStem: 0 99<302 302 302 345 255 302> 669 20G<25 118 118 118 488 575 575 575>
VStem: 25 550<689 689>
AnchorPoint: "Anchor-5" 300 689 basechar 0
AnchorPoint: "Anchor-4" 300 0 basechar 0
LayerCount: 2
Fore
SplineSet
302 99 m 1,0,-1
 488 689 l 1,1,-1
 575 689 l 1,2,-1
 345 0 l 1,3,-1
 255 0 l 1,4,-1
 25 689 l 1,5,-1
 118 689 l 1,6,-1
 302 99 l 1,0,-1
EndSplineSet
Validated: 1
EndChar
StartChar: X
Encoding: 88 88 58
Width: 600
GlyphClass: 1
Flags: W
HStem: 0 21G<31 124 31 31 469 569 469 469> 669 20G<49 149 149 149 452 545 545 545>
VStem: 31 538<0 0>
AnchorPoint: "Anchor-5" 300 689 basechar 0
AnchorPoint: "Anchor-4" 300 0 basechar 0
LayerCount: 2
Fore
SplineSet
49 689 m 1,0,-1
 149 689 l 1,1,-1
 300 424 l 1,2,-1
 452 689 l 1,3,-1
 545 689 l 1,4,-1
 350 372 l 1,5,-1
 569 0 l 1,6,-1
 469 0 l 1,7,-1
 298 311 l 1,8,-1
 124 0 l 1,9,-1
 31 0 l 1,10,-1
 247 367 l 1,11,-1
 49 689 l 1,0,-1
EndSplineSet
Validated: 1
EndChar
StartChar: Y
Encoding: 89 89 59
Width: 600
GlyphClass: 1
Flags: W
HStem: 0 21G<256 344 256 256> 669 20G<23 119 119 119 487 577 577 577>
VStem: 256 88<0 265 265 265>
AnchorPoint: "Anchor-5" 303 689 basechar 0
AnchorPoint: "Anchor-4" 300 0 basechar 0
LayerCount: 2
Fore
SplineSet
344 266 m 1,0,-1
 344 0 l 1,1,-1
 256 0 l 1,2,-1
 256 265 l 1,3,-1
 23 689 l 1,4,-1
 119 689 l 1,5,-1
 302 343 l 1,6,-1
 487 689 l 1,7,-1
 577 689 l 1,8,-1
 344 266 l 1,0,-1
EndSplineSet
Validated: 1
EndChar
StartChar: Z
Encoding: 90 90 60
Width: 600
GlyphClass: 1
Flags: W
HStem: 0 75<167 517> 614 75<108 435 108 528>
VStem: 72 456
LayerCount: 2
Fore
SplineSet
167 75 m 1,0,-1
 527 75 l 1,1,-1
 517 0 l 1,2,-1
 72 0 l 1,3,-1
 72 70 l 1,4,-1
 435 614 l 1,5,-1
 108 614 l 1,6,-1
 108 689 l 1,7,-1
 528 689 l 1,8,-1
 528 617 l 1,9,-1
 167 75 l 1,0,-1
EndSplineSet
Validated: 1
EndChar
StartChar: backslash
Encoding: 92 92 62
Width: 600
GlyphClass: 1
Flags: W
HStem: -103 912<119 479>
VStem: 53 494
LayerCount: 2
Fore
SplineSet
53 777 m 1,0,-1
 119 809 l 1,1,-1
 547 -73 l 1,2,-1
 479 -103 l 1,3,-1
 53 777 l 1,0,-1
EndSplineSet
Validated: 1
EndChar
StartChar: asciicircum
Encoding: 94 94 64
Width: 600
GlyphClass: 1
Flags: W
HStem: 527 313<74 337 74 337 263 526 263 435>
VStem: 74 452<527 527>
LayerCount: 2
Fore
SplineSet
337 840 m 1,0,-1
 526 527 l 1,1,-1
 435 527 l 1,2,-1
 299 764 l 1,3,-1
 164 527 l 1,4,-1
 74 527 l 1,5,-1
 263 840 l 1,6,-1
 337 840 l 1,0,-1
EndSplineSet
Validated: 1
EndChar
StartChar: a
Encoding: 97 97 67
Width: 600
GlyphClass: 1
Flags: W
HStem: -11 63<225.5 273> 262 58<315 317 317 393> 468 70<255 307>
VStem: 69 90<119 186 119 205> 393 85<127 262 262 262 320 363 363 368>
AnchorPoint: "Anchor-5" 292 527 basechar 0
AnchorPoint: "Anchor-4" 300 0 basechar 0
LayerCount: 2
Fore
SplineSet
478 115 m 2,0,1
 478 84 478 84 488 69.5 c 128,-1,2
 498 55 498 55 521 48 c 1,3,-1
 500 -12 l 1,4,5
 423 -2 423 -2 404 63 c 1,6,7
 347 -11 347 -11 239 -11 c 0,8,9
 160 -11 160 -11 114.5 33 c 128,-1,10
 69 77 69 77 69 151 c 0,11,12
 69 232 69 232 132.5 276 c 128,-1,13
 196 320 196 320 315 320 c 2,14,-1
 393 320 l 1,15,-1
 393 363 l 2,16,17
 393 468 393 468 268 468 c 0,18,19
 208 468 208 468 131 441 c 1,20,-1
 108 505 l 1,21,22
 201 538 201 538 281 538 c 0,23,24
 377 538 377 538 427.5 493 c 128,-1,25
 478 448 478 448 478 368 c 2,26,-1
 478 115 l 2,0,1
260 52 m 0,27,28
 299 52 299 52 334.5 72 c 128,-1,29
 370 92 370 92 393 127 c 1,30,-1
 393 262 l 1,31,-1
 317 262 l 2,32,33
 159 262 159 262 159 152 c 0,34,35
 159 52 159 52 260 52 c 0,27,28
EndSplineSet
Validated: 513
EndChar
StartChar: e
Encoding: 101 101 71
Width: 600
GlyphClass: 1
Flags: W
HStem: -11 70<279.5 347 279.5 352.5> 234 64<167 441 167 441 167 521> 469 69<270 349>
VStem: 79 88<234 234 234 298 234 342.5> 441 82<298 298>
LayerCount: 2
Fore
SplineSet
167 234 m 1,0,1
 170 147 170 147 212.5 103 c 128,-1,2
 255 59 255 59 320 59 c 0,3,4
 390 59 390 59 461 106 c 1,5,-1
 500 50 l 1,6,7
 421 -11 421 -11 320 -11 c 0,8,9
 206 -11 206 -11 142.5 63.5 c 128,-1,10
 79 138 79 138 79 263 c 0,11,12
 79 384 79 384 141.5 461 c 128,-1,13
 204 538 204 538 308 538 c 0,14,15
 408 538 408 538 465.5 468.5 c 128,-1,16
 523 399 523 399 523 279 c 0,17,18
 523 256 523 256 521 234 c 1,19,-1
 167 234 l 1,0,1
309 469 m 128,-1,21
 248 469 248 469 210 425.5 c 128,-1,22
 172 382 172 382 167 298 c 1,23,-1
 441 298 l 1,24,25
 440 381 440 381 405 425 c 128,-1,20
 370 469 370 469 309 469 c 128,-1,21
EndSplineSet
Validated: 1
EndChar
StartChar: g
Encoding: 103 103 73
Width: 600
GlyphClass: 1
Flags: W
HStem: -212 68<229 345.5 229 368> 18 73<196 353 258 336> 176 56<276.5 327.5 247 356.5> 476 62<245.5 327> 488 50<226.5 429.5>
VStem: 66 76<-84 -53 -84 -53> 79 86<321 390.5 319 408.5> 109 79<123.5 134.5> 405 87<317 385 303 395.5> 454 85<-85.5 -32>
LayerCount: 2
Fore
SplineSet
529 582 m 1,0,-1
 554 503 l 1,1,2
 507 488 507 488 400 488 c 1,3,4
 492 446 492 446 492 355 c 0,5,6
 492 275 492 275 439 225.5 c 128,-1,7
 386 176 386 176 294 176 c 0,8,9
 247 176 247 176 215 187 c 1,10,11
 188 165 188 165 188 136 c 0,12,13
 188 91 188 91 258 91 c 2,14,-1
 353 91 l 2,15,16
 433 91 433 91 486 50 c 128,-1,17
 539 9 539 9 539 -52 c 0,18,19
 539 -129 539 -129 473.5 -170.5 c 128,-1,20
 408 -212 408 -212 288 -212 c 0,21,22
 166 -212 166 -212 116 -174 c 128,-1,23
 66 -136 66 -136 66 -53 c 1,24,-1
 142 -53 l 1,25,26
 142 -102 142 -102 172.5 -123 c 128,-1,27
 203 -144 203 -144 288 -144 c 0,28,29
 454 -144 454 -144 454 -57 c 0,30,31
 454 -21 454 -21 421 -1.5 c 128,-1,32
 388 18 388 18 336 18 c 2,33,-1
 242 18 l 2,34,35
 177 18 177 18 143 46.5 c 128,-1,36
 109 75 109 75 109 118 c 0,37,38
 109 172 109 172 167 210 c 1,39,40
 79 255 79 255 79 355 c 0,41,42
 79 436 79 436 137.5 487 c 128,-1,43
 196 538 196 538 289 538 c 0,44,45
 352 538 352 538 397.5 544.5 c 128,-1,46
 443 551 443 551 467 558.5 c 128,-1,47
 491 566 491 566 529 582 c 1,0,-1
288 476 m 0,48,49
 227 476 227 476 196 443.5 c 128,-1,50
 165 411 165 411 165 355 c 128,-1,51
 165 299 165 299 196.5 265.5 c 128,-1,52
 228 232 228 232 290 232 c 0,53,54
 346 232 346 232 375.5 264.5 c 128,-1,55
 405 297 405 297 405 356 c 0,56,57
 405 476 405 476 288 476 c 0,48,49
EndSplineSet
Validated: 8388609
EndChar
StartChar: i
Encoding: 105 105 75
Width: 600
GlyphClass: 1
Flags: W
HStem: 0 67<121 283 367 515 121 283> 460 67<126 283 126 367> 655 118<282 318.5>
VStem: 240 122<697 731> 283 84<67 460 460 460>
LayerCount: 2
Fore
SplineSet
300 773 m 0,0,1
 328 773 328 773 345 756.5 c 128,-1,2
 362 740 362 740 362 714 c 128,-1,3
 362 688 362 688 345 671.5 c 128,-1,4
 328 655 328 655 300 655 c 0,5,6
 273 655 273 655 256.5 671.5 c 128,-1,7
 240 688 240 688 240 714 c 128,-1,8
 240 740 240 740 256.5 756.5 c 128,-1,9
 273 773 273 773 300 773 c 0,0,1
367 527 m 1,10,-1
 367 67 l 1,11,-1
 515 67 l 1,12,-1
 515 0 l 1,13,-1
 121 0 l 1,14,-1
 121 67 l 1,15,-1
 283 67 l 1,16,-1
 283 460 l 1,17,-1
 126 460 l 1,18,-1
 126 527 l 1,19,-1
 367 527 l 1,10,-1
EndSplineSet
Validated: 8388609
Substitution2: "'locl' Localized Forms in Latin lookup 10 subtable" i.loclTRK
Substitution2: "'locl' Localized Forms in Latin lookup 8 subtable" i.loclTRK
Substitution2: "'locl' Localized Forms in Latin lookup 6 subtable" i.loclTRK
Substitution2: "'locl' Localized Forms in Latin lookup 3 subtable" i.loclTRK
Substitution2: "'locl' Localized Forms in Latin lookup 2 subtable" i.loclTRK
Substitution2: "'aalt' Access All Alternates in Latin lookup 0 subtable" i.loclTRK
EndChar
StartChar: j
Encoding: 106 106 76
Width: 600
GlyphClass: 1
Flags: W
HStem: -212 21G<110 110> 460 67<142 361 142 445> 655 118<349 385.5>
VStem: 306 122<697 731> 361 84<79 84 84 460 460 460>
AnchorPoint: "Anchor-5" 368 527 basechar 0
AnchorPoint: "Anchor-4" 0 0 basechar 0
LayerCount: 2
Fore
SplineSet
367 773 m 128,-1,1
 394 773 394 773 411 756.5 c 128,-1,2
 428 740 428 740 428 714 c 128,-1,3
 428 688 428 688 411 671.5 c 128,-1,4
 394 655 394 655 367 655 c 128,-1,5
 340 655 340 655 323 671.5 c 128,-1,6
 306 688 306 688 306 714 c 128,-1,7
 306 740 306 740 323 756.5 c 128,-1,0
 340 773 340 773 367 773 c 128,-1,1
445 527 m 1,8,-1
 445 84 l 2,9,10
 445 -43 445 -43 360.5 -113.5 c 128,-1,11
 276 -184 276 -184 110 -212 c 1,12,-1
 96 -147 l 1,13,14
 223 -126 223 -126 292 -73.5 c 128,-1,15
 361 -21 361 -21 361 79 c 2,16,-1
 361 460 l 1,17,-1
 142 460 l 1,18,-1
 142 527 l 1,19,-1
 445 527 l 1,8,-1
EndSplineSet
Validated: 1
EndChar
StartChar: k
Encoding: 107 107 77
Width: 600
GlyphClass: 1
Flags: W
HStem: 0 21G<106 190 106 106 458 458 458 569> 507 20G<433 541 541 541> 719 20G<106 106> 729 20G<190 190>
VStem: 106 84<0 739 739 739>
AnchorPoint: "Anchor-5" 300 739 basechar 0
AnchorPoint: "Anchor-4" 306 0 basechar 0
LayerCount: 2
Fore
SplineSet
190 749 m 1,0,-1
 190 0 l 1,1,-1
 106 0 l 1,2,-1
 106 739 l 1,3,-1
 190 749 l 1,0,-1
541 527 m 1,4,-1
 305 289 l 1,5,-1
 569 0 l 1,6,-1
 458 0 l 1,7,-1
 199 288 l 1,8,-1
 433 527 l 1,9,-1
 541 527 l 1,4,-1
EndSplineSet
Validated: 1
EndChar
StartChar: l
Encoding: 108 108 78
Width: 600
GlyphClass: 1
Flags: W
HStem: -11 70<367.5 405> 672 67<60 222 60 306>
VStem: 222 84<134 672 672 672>
LayerCount: 2
Fore
SplineSet
306 739 m 1,0,-1
 306 130 l 2,1,2
 306 59 306 59 393 59 c 0,3,4
 434 59 434 59 481 77 c 1,5,-1
 503 16 l 1,6,7
 453 -11 453 -11 378 -11 c 0,8,9
 307 -11 307 -11 264.5 28 c 128,-1,10
 222 67 222 67 222 134 c 2,11,-1
 222 672 l 1,12,-1
 60 672 l 1,13,-1
 60 739 l 1,14,-1
 306 739 l 1,0,-1
EndSplineSet
Validated: 1
EndChar
StartChar: m
Encoding: 109 109 79
Width: 600
GlyphClass: 1
Flags: W
HStem: 0 21G<51 128 51 51 261 339 261 261 472 549 472 472> 472 66<209.5 239 420.5 450> 507 20G<51 116 116 116>
VStem: 51 77<0 409 0 527> 261 78<0 378 378 409 0 411.5> 472 77<0 378 378 392 0 411.5>
CounterMasks: 1 1c
AnchorPoint: "Anchor-5" 300 527 basechar 0
AnchorPoint: "Anchor-4" 300 0 basechar 0
LayerCount: 2
Fore
SplineSet
447 538 m 0,0,1
 549 538 549 538 549 392 c 2,2,-1
 549 0 l 1,3,-1
 472 0 l 1,4,-1
 472 378 l 2,5,6
 472 433 472 433 465 452.5 c 128,-1,7
 458 472 458 472 431 472 c 0,8,9
 380 472 380 472 339 409 c 1,10,-1
 339 0 l 1,11,-1
 261 0 l 1,12,-1
 261 378 l 2,13,14
 261 433 261 433 254 452.5 c 128,-1,15
 247 472 247 472 220 472 c 0,16,17
 169 472 169 472 128 409 c 1,18,-1
 128 0 l 1,19,-1
 51 0 l 1,20,-1
 51 527 l 1,21,-1
 116 527 l 1,22,-1
 122 465 l 1,23,24
 172 538 172 538 236 538 c 0,25,26
 310 538 310 538 331 468 c 1,27,28
 379 538 379 538 447 538 c 0,0,1
EndSplineSet
Validated: 1
EndChar
StartChar: n
Encoding: 110 110 80
Width: 600
GlyphClass: 1
Flags: W
HStem: 0 21G<100 100 100 184 417 417 417 501> 471 67<322 366.5> 507 20G<100 172 172 172>
VStem: 100 84<0 383 0 527> 417 84<0 320 320 374>
AnchorPoint: "Anchor-5" 300 527 basechar 0
AnchorPoint: "Anchor-4" 301 0 basechar 0
LayerCount: 2
Fore
SplineSet
100 0 m 1,0,-1
 100 527 l 1,1,-1
 172 527 l 1,2,-1
 179 453 l 1,3,4
 210 493 210 493 257.5 515.5 c 128,-1,5
 305 538 305 538 353 538 c 0,6,7
 501 538 501 538 501 382 c 2,8,-1
 501 0 l 1,9,-1
 417 0 l 1,10,-1
 417 320 l 2,11,12
 417 406 417 406 400 438.5 c 128,-1,13
 383 471 383 471 327 471 c 0,14,15
 284 471 284 471 246 445 c 128,-1,16
 208 419 208 419 184 383 c 1,17,-1
 184 0 l 1,18,-1
 100 0 l 1,0,-1
EndSplineSet
Validated: 1
EndChar
StartChar: p
Encoding: 112 112 82
Width: 600
GlyphClass: 1
Flags: W
HStem: -212 21G<100 100> -202 21G<184 184> -11 70<295 348.5 280 392.5> 470 68<304.5 357.5> 507 20G<100 172 172 172>
VStem: 100 84<-202 49 -202 125 125 386> 436 91<194 332.5>
LayerCount: 2
Fore
SplineSet
336 538 m 0,0,1
 527 538 527 538 527 264 c 0,2,3
 527 139 527 139 475 64 c 128,-1,4
 423 -11 423 -11 324 -11 c 0,5,6
 238 -11 238 -11 184 49 c 1,7,-1
 184 -202 l 1,8,-1
 100 -212 l 1,9,-1
 100 527 l 1,10,-1
 172 527 l 1,11,-1
 179 453 l 1,12,13
 239 538 239 538 336 538 c 0,0,1
316 470 m 0,14,15
 242 470 242 470 184 386 c 1,16,-1
 184 125 l 1,17,18
 229 59 229 59 305 59 c 0,19,20
 436 59 436 59 436 264 c 0,21,22
 436 470 436 470 316 470 c 0,14,15
EndSplineSet
Validated: 8388609
EndChar
StartChar: r
Encoding: 114 114 84
Width: 600
GlyphClass: 1
Flags: W
HStem: 0 65<105 188 272 379 105 188> 461 77<408.5 445 445 450> 462 65<105 188 105 251>
VStem: 188 84<65 287 65 462> 450 74
AnchorPoint: "Anchor-5" 331 527 basechar 0
AnchorPoint: "Anchor-4" 230 0 basechar 0
LayerCount: 2
Fore
SplineSet
456 538 m 0,0,1
 488 538 488 538 530 527 c 1,2,-1
 518 348 l 1,3,-1
 450 348 l 1,4,-1
 450 461 l 1,5,-1
 445 461 l 2,6,7
 323 461 323 461 272 287 c 1,8,-1
 272 65 l 1,9,-1
 379 65 l 1,10,-1
 379 0 l 1,11,-1
 105 0 l 1,12,-1
 105 65 l 1,13,-1
 188 65 l 1,14,-1
 188 462 l 1,15,-1
 105 462 l 1,16,-1
 105 527 l 1,17,-1
 251 527 l 1,18,-1
 267 402 l 1,19,20
 299 470 299 470 343.5 504 c 128,-1,21
 388 538 388 538 456 538 c 0,0,1
EndSplineSet
Validated: 1
EndChar
StartChar: t
Encoding: 116 116 86
Width: 600
GlyphClass: 1
Flags: W
HStem: -11 70<349 402> 461 66<79 200 79 200 284 456>
VStem: 200 84<147 148 148 461 527 646 646 646>
LayerCount: 2
Fore
SplineSet
519 27 m 1,0,1
 460 -11 460 -11 377 -11 c 128,-1,2
 294 -11 294 -11 247 32.5 c 128,-1,3
 200 76 200 76 200 147 c 2,4,-1
 200 461 l 1,5,-1
 79 461 l 1,6,-1
 79 527 l 1,7,-1
 200 527 l 1,8,-1
 200 646 l 1,9,-1
 284 656 l 1,10,-1
 284 527 l 1,11,-1
 467 527 l 1,12,-1
 456 461 l 1,13,-1
 284 461 l 1,14,-1
 284 148 l 2,15,16
 284 59 284 59 385 59 c 0,17,18
 439 59 439 59 486 84 c 1,19,-1
 519 27 l 1,0,1
EndSplineSet
Validated: 1
EndChar
StartChar: u
Encoding: 117 117 87
Width: 600
GlyphClass: 1
Flags: W
HStem: -11 66<242.5 283> 0 21G<428 500 428 428> 507 20G<100 184 184 184 416 500 500 500>
VStem: 100 84<144 153 153 527> 416 84<139 527 0 527>
AnchorPoint: "Anchor-5" 300 527 basechar 0
AnchorPoint: "Anchor-4" 0 0 basechar 0
LayerCount: 2
Fore
SplineSet
184 527 m 1,0,-1
 184 153 l 2,1,2
 184 102 184 102 205.5 78.5 c 128,-1,3
 227 55 227 55 273 55 c 0,4,5
 315 55 315 55 354 79 c 128,-1,6
 393 103 393 103 416 139 c 1,7,-1
 416 527 l 1,8,-1
 500 527 l 1,9,-1
 500 0 l 1,10,-1
 428 0 l 1,11,-1
 421 71 l 1,12,13
 390 32 390 32 344.5 10.5 c 128,-1,14
 299 -11 299 -11 252 -11 c 0,15,16
 177 -11 177 -11 138.5 29 c 128,-1,17
 100 69 100 69 100 144 c 2,18,-1
 100 527 l 1,19,-1
 184 527 l 1,0,-1
EndSplineSet
Validated: 1
EndChar
StartChar: y
Encoding: 121 121 91
Width: 600
GlyphClass: 1
Flags: W
HStem: -212 21G<118 118> 0 21G<245 273 245 245> 507 20G<62 151 151 151 451 538 538 538>
VStem: 62 476<527 527>
AnchorPoint: "Anchor-5" 300 527 basechar 0
AnchorPoint: "Anchor-4" 0 0 basechar 0
LayerCount: 2
Fore
SplineSet
538 527 m 1,0,-1
 354 -3 l 2,1,2
 323 -94 323 -94 269 -148 c 128,-1,3
 215 -202 215 -202 118 -212 c 1,4,-1
 106 -145 l 1,5,6
 182 -132 182 -132 216.5 -99 c 128,-1,7
 251 -66 251 -66 273 0 c 1,8,-1
 245 0 l 1,9,-1
 62 527 l 1,10,-1
 151 527 l 1,11,-1
 302 64 l 1,12,-1
 451 527 l 1,13,-1
 538 527 l 1,0,-1
EndSplineSet
Validated: 1
EndChar
StartChar: braceright
Encoding: 125 125 95
Width: 600
GlyphClass: 1
Flags: W
HStem: -136 67<149 185.5 149 205> 316 68<421.5 483 421.5 483> 769 67<149 185.5>
VStem: 254 77<210 216> 274 78<11 20>
CounterMasks: 1 e0
LayerCount: 2
Fore
SplineSet
149 836 m 1,0,1
 245 836 245 836 303 800 c 128,-1,2
 361 764 361 764 352 680 c 2,3,-1
 331 488 l 2,4,5
 326 435 326 435 360 409.5 c 128,-1,6
 394 384 394 384 483 384 c 1,7,-1
 483 316 l 1,8,9
 393 316 393 316 359.5 290 c 128,-1,10
 326 264 326 264 331 210 c 2,11,-1
 352 20 l 2,12,13
 361 -64 361 -64 303 -100 c 128,-1,14
 245 -136 245 -136 149 -136 c 1,15,-1
 149 -69 l 1,16,17
 210 -69 210 -69 244 -51 c 128,-1,18
 278 -33 278 -33 274 11 c 2,19,-1
 254 216 l 2,20,21
 247 281 247 281 271 310.5 c 128,-1,22
 295 340 295 340 358 349 c 1,23,24
 297 360 297 360 272 391 c 128,-1,25
 247 422 247 422 254 484 c 2,26,-1
 274 689 l 2,27,28
 278 732 278 732 244 750.5 c 128,-1,29
 210 769 210 769 149 769 c 1,30,-1
 149 836 l 1,0,1
EndSplineSet
Validated: 545
EndChar
StartChar: asciitilde
Encoding: 126 126 96
Width: 600
GlyphClass: 1
Flags: W
HStem: 228 73<367.5 418.5 367.5 439> 328 73<180.5 234>
VStem: 43 514<273 354>
LayerCount: 2
Fore
SplineSet
205 401 m 0,0,1
 239 401 239 401 269 385.5 c 128,-1,2
 299 370 299 370 316.5 351 c 128,-1,3
 334 332 334 332 356 316.5 c 128,-1,4
 378 301 378 301 398 301 c 0,5,6
 451 301 451 301 497 386 c 1,7,-1
 557 354 l 1,8,9
 538 318 538 318 521 294.5 c 128,-1,10
 504 271 504 271 470 249.5 c 128,-1,11
 436 228 436 228 395 228 c 0,12,13
 355 228 355 228 320.5 253 c 128,-1,14
 286 278 286 278 257 303 c 128,-1,15
 228 328 228 328 202 328 c 0,16,17
 149 328 149 328 103 243 c 1,18,-1
 43 273 l 1,19,20
 57 300 57 300 69.5 318.5 c 128,-1,21
 82 337 82 337 101.5 358 c 128,-1,22
 121 379 121 379 147 390 c 128,-1,23
 173 401 173 401 205 401 c 0,0,1
EndSplineSet
Validated: 513
EndChar
StartChar: rawbox
Encoding: 259 -1 98
Width: 600
Flags: W
LayerCount: 2
Fore
SplineSet
15 -25 m 1,0,-1
 85 -25 l 1,1,-1
 85 -79 l 1,2,-1
 15 -79 l 1,3,-1
 15 -25 l 1,0,-1
532 668 m 1,4,-1
 532 834 l 1,5,-1
 584 834 l 1,6,-1
 584 668 l 1,7,-1
 532 668 l 1,4,-1
533 334 m 1,8,-1
 533 467 l 1,9,-1
 584 467 l 1,10,-1
 584 334 l 1,11,-1
 533 334 l 1,8,-1
584 -24 m 1,12,-1
 532 -24 l 1,13,-1
 532 143 l 1,14,-1
 584 143 l 1,15,-1
 584 -24 l 1,12,-1
484 -24 m 1,16,-1
 584 -24 l 1,17,-1
 584 -79 l 1,18,-1
 484 -79 l 1,19,-1
 484 -24 l 1,16,-1
167 -26 m 1,20,-1
 366 -26 l 1,21,-1
 366 -79 l 1,22,-1
 167 -79 l 1,23,-1
 167 -26 l 1,20,-1
15 210 m 1,24,-1
 70 210 l 1,25,-1
 70 37 l 1,26,-1
 15 37 l 1,27,-1
 15 210 l 1,24,-1
15 496 m 1,28,-1
 70 496 l 1,29,-1
 70 314 l 1,30,-1
 15 314 l 1,31,-1
 15 496 l 1,28,-1
15 786 m 1,32,-1
 71 786 l 1,33,-1
 71 598 l 1,34,-1
 15 598 l 1,35,-1
 15 786 l 1,32,-1
327 947 m 1,36,-1
 547 947 l 1,37,-1
 547 897 l 1,38,-1
 327 897 l 1,39,-1
 327 947 l 1,36,-1
19 947 m 1,40,-1
 220 947 l 1,41,-1
 220 897 l 1,42,-1
 19 897 l 1,43,-1
 19 947 l 1,40,-1
EndSplineSet
Validated: 2053
EndChar
